<?xml version="1.0" standalone="no"?>
<!DOCTYPE svg PUBLIC "-//W3C//DTD SVG 20010904//EN"
 "http://www.w3.org/TR/2001/REC-SVG-20010904/DTD/svg10.dtd">
<svg version="1.0" xmlns="http://www.w3.org/2000/svg"
 width="512.000000pt" height="512.000000pt" viewBox="0 0 512.000000 512.000000"
 preserveAspectRatio="xMidYMid meet">

<g transform="translate(0.000000,512.000000) scale(0.100000,-0.100000)"
fill="#000000" stroke="none">
<path d="M2265 5085 c-60 -7 -146 -21 -190 -30 -44 -10 -91 -20 -105 -22 -14
-3 -77 -21 -140 -40 -860 -262 -1524 -968 -1733 -1843 -40 -166 -46 -201 -63
-363 -38 -352 7 -746 124 -1093 226 -665 734 -1226 1372 -1513 41 -18 102 -46
135 -61 75 -35 103 -43 240 -75 61 -14 124 -30 141 -35 39 -13 1031 -13 1038
-1 3 5 20 11 38 14 134 21 422 128 599 223 477 254 847 628 1088 1097 154 300
236 576 276 927 46 411 -24 882 -191 1272 -363 852 -1145 1441 -2049 1543
-155 18 -428 18 -580 0z m290 -1910 l0 -920 -95 0 c-112 0 -151 17 -187 81
l-23 39 0 795 0 796 23 44 c33 68 87 91 197 88 l85 -3 0 -920z m315 903 c31
-16 51 -36 67 -67 l23 -44 0 -792 0 -792 -23 -44 c-35 -67 -88 -90 -197 -87
l-85 3 -3 910 c-1 501 0 916 3 923 3 8 30 12 88 12 66 0 92 -5 127 -22z m-963
-2310 l23 -21 0 -387 0 -387 -22 -20 c-26 -24 -78 -37 -108 -28 -20 6 -20 14
-20 429 0 324 3 425 13 435 17 18 86 5 114 -21z m177 26 c14 -5 16 -51 16
-410 0 -339 2 -404 14 -404 8 0 16 7 20 15 3 8 15 15 26 15 17 0 20 -6 20 -39
l0 -38 -54 -7 c-94 -11 -86 -49 -86 428 0 447 1 457 44 440z m250 -21 l26 -26
-2 -181 -3 -181 -27 -3 -28 -3 0 180 c0 154 -2 181 -15 181 -13 0 -15 -49 -15
-380 0 -329 2 -380 15 -380 12 0 15 29 17 182 3 170 4 183 22 186 10 2 22 -2
27 -10 5 -7 9 -93 9 -191 0 -176 0 -178 -25 -202 -31 -32 -69 -32 -101 0 l-25
25 3 395 3 396 25 19 c34 27 63 25 94 -7z m168 13 c35 -26 38 -62 38 -455 0
-408 -1 -421 -44 -405 -13 5 -16 33 -18 202 -2 145 -6 196 -15 200 -10 3 -13
-40 -13 -191 0 -203 -5 -226 -44 -211 -14 6 -16 47 -16 416 l0 409 25 24 c26
27 60 32 87 11z m157 3 c17 -6 36 -19 41 -29 6 -11 10 -176 10 -403 0 -211 2
-391 6 -400 7 -18 -33 -44 -47 -30 -5 5 -10 96 -11 202 -2 145 -6 195 -15 199
-10 3 -13 -40 -13 -191 0 -165 -2 -197 -16 -208 -10 -8 -21 -10 -30 -3 -13 8
-15 71 -14 433 0 233 3 427 6 432 7 12 45 11 83 -2z m205 -10 l26 -20 0 -414
c0 -259 -4 -416 -10 -420 -5 -3 -19 -1 -30 5 -19 10 -20 20 -20 205 0 167 -2
195 -15 195 -13 0 -15 -29 -15 -199 0 -110 -4 -202 -9 -205 -5 -4 -16 -3 -25
0 -14 5 -16 51 -16 419 l0 414 26 20 c15 12 34 21 44 21 10 0 29 -9 44 -21z
m180 0 l26 -20 0 -180 0 -179 -24 0 c-13 0 -26 6 -29 14 -3 8 -6 83 -6 166 0
84 -3 155 -6 158 -16 16 -23 -34 -24 -174 -2 -127 1 -154 14 -168 9 -9 23 -16
30 -16 8 0 21 -10 29 -22 13 -18 16 -56 16 -206 l0 -183 -26 -26 c-20 -20 -32
-24 -56 -19 -61 12 -70 44 -66 246 l3 145 25 0 25 0 5 -164 c4 -115 9 -166 17
-168 9 -3 13 38 15 162 2 92 1 170 -2 174 -3 3 -18 13 -35 21 -49 26 -55 49
-55 232 0 165 0 167 26 197 30 36 61 39 98 10z m114 -416 c2 -391 1 -431 -14
-437 -43 -16 -44 -5 -44 433 0 431 1 446 40 439 13 -3 15 -58 18 -435z m84
435 c1 -2 5 -184 8 -406 3 -255 9 -403 15 -405 6 -1 12 135 15 386 l5 389 24
19 c32 26 63 24 95 -6 l26 -24 0 -391 0 -391 -25 -24 c-24 -25 -59 -32 -84
-16 -7 5 -27 4 -46 -2 -18 -5 -45 -7 -59 -3 l-26 6 0 429 c0 334 3 430 13 434
13 6 36 8 39 5z m-1232 -827 c0 -38 -12 -53 -37 -44 -13 5 -18 65 -6 76 3 4
15 7 25 7 14 0 18 -8 18 -39z"/>
<path d="M2386 3975 c-14 -15 -16 -90 -16 -798 0 -430 4 -788 8 -794 4 -7 19
-14 32 -15 l25 -3 0 810 c0 740 -1 810 -16 813 -9 2 -24 -4 -33 -13z"/>
<path d="M2772 3178 c3 -742 4 -813 19 -816 9 -2 24 4 33 13 14 15 16 91 16
800 0 699 -2 785 -16 799 -8 9 -24 16 -35 16 -19 0 -19 -15 -17 -812z"/>
<path d="M1845 1729 c-10 -26 -1 -744 10 -744 14 0 19 735 5 749 -6 6 -11 4
-15 -5z"/>
<path d="M2450 1566 c0 -151 2 -176 15 -176 13 0 15 23 13 172 -2 126 -6 172
-15 176 -10 3 -13 -36 -13 -172z"/>
<path d="M2630 1565 c0 -137 3 -176 13 -173 9 4 13 48 15 165 2 134 0 162 -13
173 -13 11 -15 -7 -15 -165z"/>
<path d="M2807 1733 c-4 -3 -7 -82 -7 -175 0 -143 2 -168 15 -168 13 0 15 26
15 175 0 160 -4 188 -23 168z"/>
<path d="M3342 1363 c2 -246 6 -377 13 -375 16 4 13 744 -3 750 -10 3 -12 -74
-10 -375z"/>
</g>
</svg>
